<?xml version="1.0" encoding="UTF-8"?>
<svg id="_레이어_2" data-name="레이어 2" xmlns="http://www.w3.org/2000/svg" viewBox="0 0 385.82 385.82">
  <defs>
    <style>
      .cls-1 {
        fill: none;
      }
    </style>
  </defs>
  <g id="_레이어_1-2" data-name="레이어 1">
    <g>
      <path class="cls-1" d="M192.91,0C86.37,0,0,86.37,0,192.91s86.37,192.91,192.91,192.91,192.91-86.37,192.91-192.91S299.45,0,192.91,0Z"/>
      <g>
        <path d="M318.7,46.68C284.92,17.6,240.98,0,192.91,0,86.37,0,0,86.37,0,192.91c0,45.64,15.86,87.56,42.35,120.6,5.73,7.25,12.73,13.76,19.32,19.81,2.81,2.58,6.78,6.24,9.89,8.15.24.15.28.5.27.77l.77-.19c-.82-2.1,1.45-2.55,1.85-3.96.21-.76.22-3.74,0-4.49-.38-1.31-1.74-.89-2.71-1.16-1.21-.33-2.16-1.1-3.79-.66l-.82,3.44c-2.21.34-3.46-1.37-3.45-3.44,1.29.07,2.57.08,3.49-.97v-7.36l.63-.55c6.16,1.63,9.15-1.73,6.73-7.78h-5.81c-.07,0-.73-1-.75-1.07-.55-1.9.12-4.28.02-6.25l6.74-1.21,1.41-8.09,5.86-.07c.19-.78,1.83-1.41,1.83-1.53v-6.59h-5.62c-.16,0-2.51-1.64-2.53-1.81l1.23-5.87c2.43-.09,4.5-.69,6.91-.06v6.2c0,.08,1.26.79,1.34.8,1.11.14,5.47.18,6.06-.57.74-1.35.51-5.83-.81-6.63-2.21-.5-4.52.31-6.52-1.03-.14-.23-.17-4.21-.1-4.8.06-.49,1.5-1.31.81-2.88h6.59c.08,0,.79-1.26.8-1.34.16-1.25-.34-5.76.03-6.36l7.7-1.22c-.22-2.01.28-4.48.03-6.41-.01-.08-.73-1.34-.8-1.34h-5.81c-1.12-5.49-.96-8.95,5.63-8.17.32-.04,1.73,1.65,1.73,1.77v6.39c2.7.35,4.86-.36,7.35-.78-.04-2.01,1.3-3.4.77-5.54-.05-.19-1.29-.57-.77-1.81-1.75-.16-6.19.61-7.16-1.17-.36-.66-.35-4.74,0-5.43,1.23-2.48,5.97-1.27,8.34-1.54-1-1.63-.35-8.29,1.73-8.55l5.59-.02,1.18-7.92c.82-.58,3.95.12,5.17-.18.26-.06.27-.58.4-.63.83-.34,1.55-.17,2.18-1.19l.41-6.69h6.97c.08,0,.79-1.26.8-1.34.18-1.36-.4-5.65.14-6.44,2.43-.29,4.82-1.21,7.33-1.12.71-.16.33-7.29-.11-7.6l-6.61-.17v-6.59c0-.08,1.26-.79,1.34-.8,1.68-.22,3.86.19,5.61.05.73,2.37,1,4.44.8,6.95,1.91.03,4.07.75,5.99.38.56-.11,2.14-1.51,2.14-1.73v-6.39h6.59s-.06-.48.13-.63c.56-.43,1.38-.65,1.41-1.51l-.4-5.98c-2.5.16-4.57-.08-6.93-.82.14-1.75-.27-3.93-.05-5.61.01-.08.72-1.34.8-1.34h6.2l.56,6.61,7.52.29c-.36-1.24.78-1.44.86-2.03.2-1.46-.2-3.34-.03-4.87-1.83.48-1.44-.78-1.55-.78h-5.81c-1.36-6.1-.47-8.99,6.37-8.15-.07,1.81.99,1.45.99,1.56v6.59h6.39c.22,0,1.63-1.58,1.73-2.14.29-1.52-.02-4.27,0-6-1.78,0-4.4.25-6.03.03-.62-.08-.78-1.31-2.1-.81.1-2.34-.64-4.86,1.35-6.59,1.19-1.04,1.75-.28,3.08-.36.92-.06,3.12-.99,3.58.48.47,1.48.15,5.51.12,7.26,1.53,0,4.7.29,5.93-.01.16-.04.59-1.21,1.75-.82l-.1-7.33-6.64-.73c-.91-7.3-.26-7.44,6.81-7,.01,2.42,1.27,4.35.78,6.97,2.17.12,4.62.7,6.8.42.08-.01,1.34-.73,1.34-.8v-6.59c0-.08,1.26-.79,1.34-.8,1.47-.19,6.43.73,6.78-1.03.41-2.03-.56-4.67.6-6.69.77-.91,4.06-.07,5.35-.39.27-.07.2-.6.57-.75.34-.14,1.1.11,1.24-.03.14-.14-.11-.89.03-1.24.16-.4.7-.16.79-.85.13-1-.54-5.64.94-5.64h7.17v-6.39c0-.11,1.25-1.74,1.36-1.74h7.17v6.39c0,.07.9.97.97.97h6.39v-7.36h-6.97c-.75-2.43-.4-4.97.18-7.38,2.45-1.09,5.03-.8,7.57-.37v6.97c1.23-.55,1.62.71,1.82.76,2.03.53,2.09-.7,2.32-.75.95-.22,2.18.2,3.17-.06.98-2.37.87-4.8.83-7.31l-7.31-.83c-.59-7.14-.27-7.46,6.87-6.87l1.2,7.14,6,.2c.91-1.13.77-2.03,1.09-3.23.2-.78.89-1.41.7-2.36-.03-.15-1.51-.92-.79-2.58h-6.59c-1.52-6.32.19-8.12,6.59-7.36-.15,2.58,1.32,4.61.77,7.37,2.13-.23,4.75.29,6.8.03.08-.01,1.34-.72,1.34-.8v-6.2c0-.12,2.02-1.13,2.14-1.16,1.61-.31,3.92.37,5.51-.13,1.62-.51.27-6.17,1.91-7.64,1.68.3,6.85-.88,7.13,1.36.36,2.9-1.28,6.15,3.27,6.05,6.27-.14,4.94-3.2,4.45-8.17h-6.97v-6.59c0-.08,1.26-.79,1.34-.8,1.53-.2,3.59.13,5.18.09.82.51.74,5.74.88,6.87,1.37.55,8.48,1.04,8.48-.93v-6.01c.78-.08,1.71.16,2.45,0,.31-.07.1-.7.82-.8,7.36-.95,3.49,2.85,5.8,6.87.04.08.84.88.91.89,1.52-.1,5.15.6,5.83-1.03.96-2.31.06-4.49.08-6.7-6.41-.09-7.83,1.34-6.8-6.6.66-.99,5.75-1.11,6.82-.18,0,1.28.4,2.6.39,3.87,0,1.11-.41,2.13-.42,2.91,2.19.03,5.55.29,7.57.03.08-.01,1.34-.72,1.34-.8v-6.2c0-.09.93.11,1-1.19l6.87.4c1.05.64.47,4.95.73,6.16,1.68.9,3.89,1.12,5.96.85.08-.01,1.34-.72,1.34-.8v-6.39c-.99-1.32-6.26.03-6.92-1.02l-.24-4.66c1.4-2.34,3.39-2.78,6.1-2.24,1.05.21,1,2.1,1.16,2.78.31,1.28,1.14,2.41.67,4.17l7.9.41c.56-1.38.78-2.22,2.56-1.96.51,1.65-1.3,2.07-1.54,3.3-.15.77-.15,3.47-.04,4.28.08.62,1.33.8.81,2.11h7.75l.74,6.81,3.53,1.12,3.09,1.75c.48-.59-1.21-2.16-1.5-2.66-8.8-15.26-22.67-30.31-37.19-42.59ZM197.76,122.16h-3.88s.07-2.27.07-2.27c1.07-.14,1.81-1.13,2.94-.72.82.3,1.08,2.17.87,2.99ZM185.05,129.83c-1.02-1.77,3.62-4.58,4.76-2.25,2.03,4.16-3.85,3.83-4.76,2.25ZM149.31,169.31c.53,2.14-.08,2.05-1.16,3.02-.23.21-.28.78-.46.89-.85.52-3.52-.22-3.99-1.06-.12-.21,0-4.15.67-4.58l4.18-.08c-.53,1.24.72,1.63.77,1.81ZM130.84,189.97c-2.18.84-5.07-2.16-3.91-4.19.06-.1,1.72-1.37,1.83-1.42.74-.29,3.47.82,3.81,1.42,1.05,1.86-.76,2.95-1.73,4.19ZM122.97,198.1l-4.09-1.52c-1.23-3.84,1.99-3.64,4.87-3.51-.15,1.1.23,2.59-.02,3.6-.06.24-1.16.51-.76,1.44ZM104.77,213.99c-.68-1.42-1.6-3.22.5-3.81.32.25,1.68.63,1.76.76.7,1.12-1.7,3.44-2.26,3.05ZM111.8,202.04l2.21-.77c1.15,1.2.86,2.19.83,3.82h-3.1s.07-3.04.07-3.04ZM91.13,246.49c-1.5.7-2.75,1.18-4.68.8-1.45-.28-1.78-3.82.77-4.55,3.46-.99,4.64.34,3.91,3.74ZM81.51,255.45c-.63-.08-1.48.16-2.05,0-1.95-.52-.23-5.35,1.61-4.21l.44,4.21ZM74.45,279.78c-.14.24-1.94,1.29-2.43,1.29-2.57,0-3.01-3-2.39-4.98.36-1.15,4.51-1.65,4.9.49.1.55.14,2.84-.08,3.2ZM60.59,305.44c.06-5.13.5-5.97,5.82-5.43.54,5.76-.42,5.74-5.82,5.43ZM56.72,313.57l-2.27-.06c.04-.76-.83-1.5-.85-2.06,0-.22.67-.12.79-.49.48-1.54-.61-1.37,2.33-1.27v3.88ZM67.18,322.87c-1.6.63-2.65.09-4.07,0-.72-.04-2.45.41-3.22-.45-.17-.19-.18-4.56-.09-5.19.01-.08.73-1.34.8-1.34h6.59v6.97ZM74.48,298.41c-.2.13-3.15.15-3.65.08-.69-.09-.45-.63-.85-.79-.35-.14-1.1.11-1.24-.03-.14-.14.11-.89-.03-1.24-.18-.46-.8-.04-.8-1.27,0-1.25.73-.9.81-1.24.2-.83-.1-1.95,0-2.84,1.41.23,4.99-.54,5.85.55.6.94.51,6.39-.09,6.76ZM83.06,272.89l-5.17-.06c-1.37-1.09-1.77-2.51-1.21-4.18,1-2.92,3.41-1.42,5.59-2.34-.38,1.36.78,1.08.78,1.16v5.42ZM91.8,264.39c-.44.64-6.77.52-7.14-.08-.11-2.08-.69-6,2.09-6.52.77-.15,3.23-.13,3.94.12.08.03.55.84,1.3.87l-.19,5.61ZM97.56,239.55c-6.93.68-4.41-7.6,1.33-5.73,1.1,1.99,1.58,5.45-1.33,5.73ZM108.67,229.31c-.08.64-1.31.79-.81,2.12-1.43-.15-6.23.64-6.57-1.06-.12-.59-.16-3.2-.02-3.7.29-1.08,4.27-2.14,5.42-1.63,1.31.58.95,1.81,1.3,2.79.05.13.88-.05.68,1.48ZM116.38,223.29h-6.2c.02-1.76-1.31-2.13-.76-4.38.07-.27.6-.2.75-.57.14-.34-.11-1.1.03-1.24.14-.14.89.11,1.24-.03.4-.16.15-.69.85-.79,2.14-.32,2.82.56,4.39,1.67l-.29,5.33ZM124.44,215.45c-5.87.75-7.3-.49-6.42-6.42,1.87-1.44,4.3-.69,6.5-.86.16.16-.16,2.54,0,3.22.07.29.68.24.76.53.31,1.25-.15,2.52-.85,3.52ZM133.43,206.43c0,1.15-3.99,1.15-4.77.96-.29-.07-.24-.69-.53-.76-.53-.13-1.95.11-2.06,0-.09-.1.11-.88,0-1.26-.11-.37-.76-.3-.79-.51-.08-.64,1.22-2.55.99-3.66,1.94-1.87,4.77-2.2,7.17-1.16v6.39ZM135.76,176.4h4.65c1.47,6.54-6.13,6.52-4.65,0ZM150.1,190.16l-.58.58h-6.78c-.06-.02-.75-.99-.76-1.05-.16-.76-.14-3.37-.04-4.2.01-.11,1.07-1.87,1.17-1.93.51-.34,1.27-.03,1.68-.2.38-.16.14-.7.84-.79.7-.09,2.77-.09,3.43.04.06.01,1.05.7,1.05.76v6.78ZM157.46,164.4h-5.04c.66-1.24-1.22-1.74-.76-2.32.04-.04.67.11.77-.26.16-.59-.1-1.43,0-2.08,1.26.21,3.05-.69,4.14.12,1.17.87.9,3.23.9,4.53ZM165.21,156.65c-1.68.04-3.18.24-4.57-.86l-.09-4.18h4.65v5.04ZM174.04,146.88c-.1.17-.68.22-.89.46-.33.36-.54,1.1-.85,1.18-.96.24-3.62-.5-3.95-1.41-.94-2.63,1.44-4.74,3.95-3.95.95.3,2.31,2.79,1.74,3.73ZM177.24,138.54c-.66-3.21.89-4.01,3.85-3.59-.52,1.25.71,1.61.77,1.81.98,3.73-4.29,3.36-4.62,1.77ZM191.55,148.7c-.35,1.13-6.07.36-7.36.58.53-1.29-.8-1.55-.83-2.12-.01-.26.77-3.35.91-3.79.14-.43.69-1.08,1.08-1.24.38-.16,4.1-1.07,4.37-1,.32.08.5.84.83,1.2.3.34.99.32.99.37v6.01ZM199.53,139.6c-.46,1.6-2.67,2.04-4,1.42-.1-.05-.08-.58-.37-.64-.56-.12-1.21.12-1.78-.02-1.33-.32-1.27-3.99-1.04-5.13.03-.13,1.69-1.79,1.82-1.82.74-.15,3.39-.14,4.09.06,1.88.54.94,2.03,1.01,3.21.07,1.05.58,1.83.27,2.92ZM207.44,131.65c0,.11-.4.9-.65.98-6.12.94-7.29-2.39-5.16-7.38h5.81v6.39ZM216.38,122.37c-.3,2.04-6.84,1.87-7.31.3-.62-2.11-.12-4.29,1.73-5.49l4,.53.58.59c.23.6.11,1.22.32,1.83.09.26.97.21.67,2.26ZM224.05,114.74c-1.98.9-4.1.3-6.13.04-.49-5.35.1-5.83,5.4-5.4-.5,1.32.73,1.48.81,2.1.06.48.05,3.06-.08,3.27ZM227.28,106.96c-1.06-1.45-1.23-3.5-.51-5.18.8-1.01,3.44-.39,4.68-.54-.5,1.32.72,1.47.81,2.1.58,4.11-1.49,4.01-4.98,3.62ZM238.4,98.09l-3.06-.73.05-2.66,2.99-1.15c1.37,1.71,1.47,2.88.02,4.55ZM257.59,98.57c-1.15.41-6.48.69-6.97-.02l.06-5.49c.95.12,3.46-.96,3.84-.97.12,0,2.04,1,2.17,1.17.33.44.26,1.1.49,1.65.06.14.57.03.66.69.07.55.11,2.71-.25,2.98ZM260.2,84.64c1.13-.04,3.52-.44,4.24.48l.3,4.83c-4.64,1.63-6.75-1.05-4.54-5.31ZM270.86,81.47c-.28-.08-.22-.7-.52-.77-.73-.17-1.67.09-2.45,0-.41-1.61.45-1.35.93-1.98.24-.31.16-.93.29-1.06.3-.29,3.52-.03,3.76.38.52,1.45-.24,3.94-2.01,3.43ZM289.3,82.23c-4.97.98-5.7-.74-5.09-5.35,1.19.02,3.64-2.01,4.56-1.15.12.11-.05.75.14.97.36.43,1.14.38,1.38,1.17.31,1.01.24,4.12-.99,4.37ZM292.69,71.89c-.36-3.19,2.73-2.39,5.04-2.43.81,4.78-2.14,5.61-5.04,2.43ZM309.02,73.28c-.98-5.07.4-5.87,5.37-5.37-.69,1.6.73,2.36.8,2.88.61,4.26-3.39,4.28-6.17,2.49ZM318.36,64.69c-.06-.02-.85-.88-.86-.94-.69-2.87,4.95-4.54,4.82-.68-.07,2.12-2.27,2.15-3.96,1.61Z"/>
        <path d="M88.29,349.99c-1.24-.23-2.8.17-4.19-.09-.11-.02-1.81-.97-1.81-1.07v-7.36h-5.81c-.08,0-.41,1.22-.88,1.43-.54.24-1.8-.19-1.45.69.14.33,3.94,3.61,4.55,4.06,3.23,2.41,7.22,4.44,10.31,7.23l2.57.91c-.5-1.32-2.09-5.59-3.29-5.81Z"/>
        <path d="M122.37,239.92c1.11-.15,1.22-.67,2.03-1.23l.12-5.71c-1.27.48-1.54-.6-1.65-.65-.66-.3-5.16-.29-5.53.24-.42,4.99-1.24,8.22,5.04,7.35Z"/>
        <path d="M114.28,240.7c-4-.49-6.24.18-5.67,4.51.06.49,1.5,1.3.81,2.88h6.59c.56-2.1,1.17-7.03-1.72-7.39Z"/>
        <path d="M272.92,99.69h-6.59v5.62c0,2.33,7.12,2.57,7.39.4.12-.99.13-3.71,0-4.68-.01-.08-.73-1.31-.8-1.34Z"/>
        <path d="M75.7,306.98v6.59c0,.09,1.34.77,1.7.8,1.03.09,3.34.13,4.32,0,.08-.01,1.34-.72,1.34-.8v-5.81c-2.44-.84-4.8-.88-7.36-.77Z"/>
        <path d="M125.28,228.16c.17,1.14,1.13,1.95.8,3.27,6.67.42,7.13.27,6.54-6.54-3.95-1.11-8.19-2.43-7.33,3.26Z"/>
        <path d="M208.2,144.46c.21,1.32,1.28,2.4.79,4.05,1.39-.2,5.99.62,6.46-.88.27-.86.34-5.08-.26-5.52-3.03-1.18-7.76-2.45-7,2.35Z"/>
        <path d="M96.11,274.43c-.24-.05-.23-1.25-2.31-.75-.06.02-1.03.7-1.05.76v6.2c5.17,2.39,9.05-.92,6.12-6.11-.62-.35-1.94.09-2.75-.09Z"/>
        <path d="M223.33,133.4h-6.2v6.01c0,1.2,4.45,1.19,5.33.85.12-.05,1.65-1.84,1.67-2,.1-.77.11-3.09-.04-3.8-.01-.06-.7-1.03-.76-1.05Z"/>
        <path d="M321.64,83.15c-.56-.26-3.18-.24-3.87-.11-1.6.32-1.42,6.06-.2,7.26,5.07,1.16,6.79-1.97,5.65-6.44-1.17.33-1.48-.66-1.58-.71Z"/>
        <path d="M291.93,91.96c.38.78-.86,2.19-.78,2.29.03.03.68-.09.77.26.29,1.12-.47,3.05.93,4.04,1.15.82,4.39.5,5.56-.5l-.28-5.95-6.2-.15Z"/>
        <path d="M134.21,217.38c-.38.77-.12,5.04.54,5.55.74.58,4.71.64,5.31-.2.35-.48.2-1.1.39-1.47.19-.39.67-.21.76-.86.32-2.27-.79-2.3-.8-4.09-1.82.24-5.27-.79-6.19,1.07Z"/>
        <path d="M207.44,150.05h-3.63s-.44-.78-.44-.78c-.25,1.37-1.31.47-2.05.86-1.2.63-1.01,5.23-.47,6.51h5.81c-.38-1.03.71-1.04.8-1.72.19-1.47-.2-3.34-.03-4.87Z"/>
        <path d="M192.33,158.58v5.81c0,.06.99.75,1.05.76.76.16,2.98.12,3.83.04.36-.03,1.7-.71,1.7-.8v-5.81c-2.14-.6-4.47-.59-6.59,0Z"/>
        <path d="M165.21,191.52h-5.81c-1.06,5.09-.62,7.11,4.89,6.62,2.21-.2,2.05-3.83,1.69-5.56-.01-.06-.7-1.03-.76-1.05Z"/>
        <path d="M264.68,108.72c-1.28-.41-5.9-.59-6.12,1.22-.51,4.17.72,6.1,5.25,5.23,2.61-.5,2.12-6.06.87-6.45Z"/>
        <path d="M150.96,200.51c-.43,5.28-.64,6.85,5.16,6.14,1.9-.23,1.68-5.24.85-6.13-1.13-1.2-4.74-1.23-6.01-.02Z"/>
        <path d="M148.55,208.18h-5.81v6.59h5.81c.06,0,.75-.99.76-1.05.16-.76.12-2.98.04-3.83-.03-.38-.72-1.66-.8-1.7Z"/>
        <path d="M173.15,183.38h-5.62v5.81c0,.06.99.75,1.05.76.75.16,3.36.14,4.19.04,2.06-.25,1.74-6.23.37-6.61Z"/>
        <path d="M91.23,300.58l-.11-.49c-1.87-1.44-4.3-.69-6.5-.86v6.2c4.35,1.88,7.4.07,6.62-4.86Z"/>
        <path d="M250.99,117.08c-.8.63-.73,4.77-.42,5.74.35,1.11,3.85,1.13,4.81.76.11-.04,1.61-1.6,1.63-1.71.11-.56.13-3.56-.07-3.9-.75-1.29-4.85-1.77-5.96-.9Z"/>
        <path d="M190.01,166.72h-5.81v5.62c0,1.2,6.34,1.82,6.61-.37.1-.83.12-3.44-.04-4.19-.01-.06-.7-1.03-.76-1.05Z"/>
        <path d="M106.97,266.44c-1.08-.43-4.56-.97-5.34.02-.93,4.41-1.09,7.52,4.41,6.42.12-.02,1.67-1.52,1.71-1.63.39-1.01.38-4.35-.78-4.8Z"/>
        <path d="M181,174.97c-.63-.24-3.22-.24-3.99-.14-1.69.21-1.53,3.59-1.37,4.88.14,1.14,1.47,1.14,2.03,1.38.42.18.21.66.88.77,1.92.31,1.58-.6,2.06-.79.34-.14,1.1.11,1.24-.03.14-.14-.11-.89.03-1.24.15-.37.68-.29.75-.57.13-.54.11-1.99,0-2.55-.02-.12-1.52-1.67-1.63-1.71Z"/>
        <path d="M248.13,125.26h-5.42l-.32,5.17c3.95,3.5,7.54.84,6.51-4.11-.01-.06-.7-1.03-.76-1.05Z"/>
        <path d="M288.53,107.03c.06-.01,1.05-.69,1.05-.76v-5.81h-5.42c-2,3.69-.09,7.54,4.37,6.57Z"/>
        <path d="M82.32,326.04c-.13-.25.07-.8-.12-1.13-.98-1.69-5.67-1.35-6.03,1.73-.12,1,.62,2.43.31,3.6l5.77-.06c-.2-1.62.95-1.24.86-2.87-.07-1.21-.52-.75-.78-1.27Z"/>
        <path d="M333.39,84.86c-.88,4.5,1.46,6.14,5.73,4.68-.34-1.25.77-1.42.86-2.03.34-2.16-.96-1.93-.81-3.7-1.3.09-5.48-.54-5.79,1.06Z"/>
        <path d="M279.79,108.72c-.9-.41-4.08-.31-4.41.75-.22.72-.26,2.46-.15,3.22.08.62,1.31.78.81,2.1,1.31-.18,4.25.5,5.07-.54.52-1.52,1.12-3.31.28-4.82-1.17.34-1.48-.66-1.59-.71Z"/>
        <path d="M314.56,93.32c-1.09-1.58-3.01-1.98-4.81-1.18-1.72.75-1.16,3.65-1.1,5.18.95-.2,1.02.76,1.65.85,3.16.44,5.59-1.06,4.86-4.41-.07-.3-.5-.3-.59-.43Z"/>
        <path d="M114.37,258.53c-.37-.19-.34-.59-.42-.62-.57-.26-2.08-.24-2.71-.11-.12.02-1.67,1.52-1.71,1.63-.24.63-.24,2.79-.1,3.49.29,1.46,5.62,1.75,6.3-.19.32-.92.5-3.22-.07-3.95-.33-.43-.99-.09-1.29-.24Z"/>
        <path d="M238.32,133.53c-.71-.24-1.99-.27-2.71-.12-.13.03-1.79,1.69-1.81,1.81-.26,1.3-.23,4.01,1.25,4.5.52.17,3.36-.05,3.89-.2,1.75-.5,1.82-3.8.67-5.08-.05-.06-1.21-.89-1.29-.91Z"/>
        <path d="M96.83,297.72c.11-.01,1.87-1.08,1.93-1.17.55-.76.23-4.84-.68-5.36l-4.5-.02c-1.79,2.93-.67,6.99,3.25,6.55Z"/>
        <path d="M122.87,249.76c-1.04-.33-4.44-.4-4.81.75-.19.61-.25,4.66-.06,4.87,1.32.39,2.45,1.21,3.93.82.19-.05.56-1.29,1.81-.77v-2.85s.77-.63.77-.63c-1.08.31-.66-1.89-1.65-2.21Z"/>
        <path d="M225.84,142.69l-.2,3.99c1.51,1.63,3.85.93,5.81,1.05-.48-1.27.59-1.54.65-1.65,1.68-3.61-3.93-5.61-6.27-3.38Z"/>
        <path d="M126.13,241.94c-.69,5.58.43,5.8,5.7,5.32,1.71-4.95-1.01-6.99-5.7-5.32Z"/>
        <path d="M86.44,322.01c.57.16,2.71.24,3.13,0,.83-1.19,1.87-3.87.9-5.12-.33-.43-.98-.09-1.29-.24-.36-.19-.35-.6-.42-.62-3.91-1.46-6.1,4.92-2.33,5.99Z"/>
        <path d="M209,160.72c-.46,2.16.98,1.88.77,3.67l4.98-.05.38-4.53c-1.87-1.41-5.49-2.08-6.12.92Z"/>
        <path d="M205.01,166.84c-2.8-1.31-5.48,3.19-3.54,5.73,5.2,1.38,5.6-.34,5.19-5.08-1.28.48-1.54-.6-1.65-.65Z"/>
        <path d="M167.49,203.35c-.1,1.11,1.28.98.81,2.49l4.59-.05c3.72-6.09-4.9-8.1-5.41-2.44Z"/>
        <path d="M221.68,150.17c-4.3-1.43-4.76,3.14-3.01,5.89,1.16.56,3.4.16,4.47-.57.3-.46.29-2.97.16-3.61-.02-.12-1.52-1.68-1.63-1.71Z"/>
        <path d="M143.57,230.59c4.66.62,5.53-.22,4.91-4.91-4.22-2.45-7.35.71-4.91,4.91Z"/>
        <path d="M138.76,233.1c-2.17-.76-1.98.92-3.77.66l.06,4.58c3.72,1.88,6.29,1.07,5.34-3.53-.02-.12-1.52-1.67-1.63-1.71Z"/>
        <path d="M156.23,222.45c.7-1.16,1.49-4.1.3-5.01-6.86-2.57-7.86,6.55-.3,5.01Z"/>
        <path d="M267.95,122.87c1.17.11,4.45.44,4.85-.81.29-.92.32-3.22-.23-3.99-3.64-3.04-6.81,1.43-4.61,4.81Z"/>
        <path d="M106.31,283.54c-.26-.12-3.03-.52-3.25-.48-1.71.33-2.15,2.37-1.78,3.9.04.18,1.29.57.77,1.81,1.2-.06,4.49.45,4.91-.88.31-.98.42-3.85-.65-4.35Z"/>
        <path d="M163.55,208.3c-1.76-.82-4.36,1.53-4.16,3.52.33,3.22,3.34,2.34,5.76,1.73l.05-4.59c-1.28.48-1.54-.6-1.65-.65Z"/>
        <path d="M185.03,189.13c4.66.62,5.53-.22,4.91-4.91-3.55-2.39-7.29,1.36-4.91,4.91Z"/>
        <path d="M300.82,106.27c3.92.43,6.25-.15,5.24-4.66-5.21-3.02-5.65-.13-5.24,4.66Z"/>
        <path d="M193.98,175.75c-.11.04-1.6,1.6-1.63,1.72-.14.61-.11,1.35.1,1.95.04.11,1.6,1.61,1.71,1.63.5.1,3.3.11,3.54-.04.61-1.35,1.32-3.73.25-4.99-.5-.59-3.25-.55-3.97-.27Z"/>
        <path d="M180.22,191.64c-2.72-.96-4.47,2.35-3.78,4.73l.39.77c.88.38,1.96.7,2.93.62.59-.05.81-1.34,2.11-.82v-3.59c-.48-.16-1.53-1.67-1.64-1.71Z"/>
        <path d="M114.73,275.34c-1.31-.41-3.14.03-4.54-.12.52,1.28-.72,1.62-.77,1.8-.35,1.25,1.31,1.55.82,3.18,1.31.86,4.15.31,5.02-.89.67-.94.55-3.64-.52-3.97Z"/>
        <path d="M262.83,125.47c-2.02-.76-1.55.12-2.19.56-.35.24-1.11.26-1.22.43-.37.56-.2,4.14.83,4.47,4.79,1.54,6.37-4.05,2.59-5.47Z"/>
        <path d="M330.13,92.87c-1.29-.72-3.39-.4-4.38.72l-.12,3.77c1.66-.33,1.26.91,2.92.82,1.2-.07.99-1.2,2.5-.82-.15-1.51.62-3.63-.92-4.49Z"/>
        <path d="M122.83,267.23c-3.68-1.91-6.06,1.48-3.57,4.52l3.71.35c-.52-1.25.72-1.62.77-1.81.26-1.04.12-2.53-.9-3.06Z"/>
        <path d="M247.21,142.85c-3.94-2.04-5.62,1.67-3.67,4.81,2.13.71,2.9-.71,4.58-.71-.09-1.39.52-3.36-.91-4.1Z"/>
        <path d="M98.12,308.59c-1.04-.48-3.47-.88-4.25.1-.54,1.01-.67,3.85.19,4.53l4.07.31-.02-4.95Z"/>
        <path d="M251.21,135.89c-.22,1.57-.08,3.97,2.12,3.72.22-.02.17-.72.48-.79.73-.17,1.68.09,2.46,0,.14-1.68,0-3.12-.84-4.58-1.92-.09-3.88-.71-4.21,1.66Z"/>
        <path d="M85.38,333.33c-.17,2.6-.47,6.08,3.22,4.96,2-.61,2.53-4.33.94-4.83-1.28-.4-2.83.03-4.16-.13Z"/>
        <path d="M292.68,109.37l.06,4.21,4.62.27c.75-.52.38-3.57-.08-4.43l-4.6-.06Z"/>
        <path d="M238.72,150.96c-2.9-.9-4.89.35-4.14,3.47.05.22,1.06.52.8,1.37,2.84.52,4.82-.9,4.2-3.91-.01-.06-.8-.92-.86-.93Z"/>
        <path d="M226.97,159.71c-.94.74-.44,2.79-.54,3.91,1.27-.52,1.6.71,1.82.77,2.09.59,4.02-2.66,3.16-4.58-.3-.49-3.76-.74-4.44-.09Z"/>
        <path d="M321.16,101.25c-3.58-.68-4.02,1.08-3.67,4.25,1.33-.5,1.47.73,2.12.81,1.41.19,1.11-.35,1.53-.64,1.77-1.25,2.22-4,.02-4.42Z"/>
        <path d="M102.41,304.49l3.81.09c1.8-2.15.13-2.66.08-4.56-4.08-.57-4.86.81-3.89,4.47Z"/>
        <path d="M143.68,243.03c-.69,2.69-.14,4.97,3.04,4.27.12-.03,1.67-1.52,1.71-1.63.44-1.12-.19-2-.74-2.92l-4.01.28Z"/>
        <path d="M129.43,259.32c-.29-.07-.27-.64-.34-.68-.55-.28-1.6.66-2.18.75l-.07,3.81h3.99c1.12-.97,1.17-2.5,1.05-3.88-.78-.09-1.72.17-2.46,0Z"/>
        <polygon points="139.58 255.01 139.64 250.41 135.76 250.41 136.12 255.28 139.58 255.01"/>
        <path d="M113.98,291.96c-.75-.42-3.37-.13-3.67.79-1.19,3.75,3.45,4.78,4.33,3,.45-.91.12-3.35-.66-3.79Z"/>
        <path d="M284.99,118.34l-.05,3.82c1.7-.46,1.44.65,1.57.75.72.59.79-.6.86-.64.43-.2,1.85-.25,2.09-.99.64-1.93-.41-1.87-.69-3.31l-3.77.37Z"/>
        <path d="M218.68,167.49c.17,1.28-.55,4.2.78,4.86,3.29.47,4.2-2.17,2.66-4.8l-3.44-.06Z"/>
        <path d="M196.1,192.42c-1.91-.88-3.49.76-2.98,2.7.05.2,1.28.56.77,1.81,1.08-.04,3.12.39,3.68-.77l.19-3.1c-1.26.47-1.54-.6-1.65-.65Z"/>
        <path d="M154.64,233.88c-1.91-.88-3.49.75-2.98,2.7.07.26.54.2.74.58.23.43-.35,1.76,1.32,1.53,2.52-.36,2.97-1.84,2.57-4.16-1.26.48-1.54-.6-1.65-.65Z"/>
        <path d="M276.05,127.09c-.59,2.79,2.17,4.72,4.07,2.84,1.33-1.32.05-2.43-.27-3.83-.97-.32-3.55-.14-3.79.99Z"/>
        <path d="M209.76,176.4c-.06.99-.22,3.4.88,3.75,1.65.53,3.72.21,4.1-1.71.55-2.81-3.23-1.94-4.98-2.04Z"/>
        <path d="M346.89,97.32l.04-3.84c-6.56-1.34-6.17,5.46-.04,3.84Z"/>
        <path d="M168.3,217.86c-.42,3.2.48,4.47,3.8,3.79.88-1.17,1-2.35.86-3.79h-4.65Z"/>
        <path d="M180.21,209.08c-.98-.3-2-.06-3-.13-.26,3.31-.17,5.79,3.82,4.21.18-1.03.29-3.73-.83-4.08Z"/>
        <path d="M161.6,229.86c.88.16,1.92-.07,2.84.02l-.06-3.82c-2.46-1.51-5.59.34-4.03,3.09.17.29.66,0,.88.12.09.05.1.55.37.6Z"/>
        <path d="M205.84,184.6c-3.41-1.46-4.94.24-3.28,3.47l3.33.35-.06-3.82Z"/>
        <path d="M312.73,109.5c-1.14-.4-3.45.64-3.28,1.94.22,1.75,1.28,3.05,3.12,2.5,1.61-.49,1.36-4.02.17-4.44Z"/>
        <path d="M185.14,201.57c-1.1,3.36,1.3,3.73,4.09,3.51.51-3.34-.76-4.8-4.09-3.51Z"/>
        <path d="M95.84,329.98s-.03-.46.26-.53c.62-.14,1.42.08,2.08,0,.07-.98.21-3.41-.88-3.75-.98-.3-2-.06-3-.13-.17,1.15-.18,5.36,1.54,4.4Z"/>
        <path d="M122.97,288v-3.88c-5.55-.88-5.48,4.75,0,3.88Z"/>
        <path d="M268.72,138.77l3.43.06-.44-3.82c-2.94-.64-4.26.99-2.99,3.77Z"/>
        <path d="M334.92,105.5h3.49s-.35-3.33-.35-3.33c-2.7-1.65-3.58.85-3.14,3.33Z"/>
        <path d="M260.19,143.53l-.06,3.43c2.65.54,3.39-.62,3.86-3.08-1.37-.49-2.36-1.23-3.8-.35Z"/>
        <path d="M102.42,318.83c-.47,3.48,5.36,2.55,3.89-1.38-1.36.02-3.64-.46-3.89,1.38Z"/>
        <path d="M127.62,275.98v3.49c3.03.36,3.85-.49,3.49-3.49h-3.49Z"/>
        <path d="M304.7,122.16v-3.88c-4.27-.81-4.27,4.68,0,3.88Z"/>
        <path d="M255.49,151.61h-3.49s0,3.49,0,3.49l3.12-.55c.64-.43.29-2.17.36-2.93Z"/>
        <path d="M138.75,267.97c-.98-.3-2-.07-3-.12-.34,1.65,1.32,1.63.78,3.49,1.74.36,3.56-.42,3.08-2.43-.01-.06-.8-.92-.86-.94Z"/>
        <path d="M146.89,259.45c-.87-.27-1.73-.1-2.61-.13-.08,1.7-.29,3.75,1.95,3.34,2.31-.42,1.72-2.88.66-3.21Z"/>
        <path d="M237.76,171.74c1.13-.27,1.35-2.48.62-3.41-3.85-1.21-3.97,4.21-.62,3.41Z"/>
        <path d="M354.19,102.13c-2.74-.86-3.43,2.37-1.84,3.17,2.63,1.32,3.59-2.62,1.84-3.17Z"/>
        <path d="M218.7,187.35c.87,1.17,1.6,1.23,3.08,1.06v-3.49c-1.74-.37-3.56.42-3.08,2.43Z"/>
        <path d="M188.35,217.99c-.54-.19-.99-.24-1.55-.11-1.17.87-1.23,1.6-1.06,3.08h3.49c.19-.84-.01-2.67-.88-2.97Z"/>
        <path d="M169.28,237.24c.37.73,1.77,1.07,2.44.69.22-.13.91-1.53.81-1.96-.58-2.46-4.59-1.38-3.25,1.28Z"/>
        <path d="M296.07,126.94c-2.95-1.04-3.66,3.31-.86,3.36,1.53.03,2.44-2.8.86-3.36Z"/>
        <path d="M110.98,311.73c1.12,1.52,3.12,1.83,3.05-.64,0-.27-.33-1.68-.4-1.74-1.04-.85-3.39.96-2.65,2.38Z"/>
        <path d="M155.16,251.36c-2.14-1.46-3.9,2.45-1.87,3.2,2.18.8,2.8-2.56,1.87-3.2Z"/>
        <path d="M246.41,160.7c-.66-.5-1.21-1.1-2.16-.95-.21,1.85-.14,4.34,2.22,3.75,1.2-1.18,1.33-1.74-.07-2.8Z"/>
        <path d="M359.87,95.67c-.53-.75-.69-1.82-1.69-2.18-.59,3.01,1.07,4.47,3.48,5.81.12-1.6-1.08-2.63-1.79-3.63Z"/>
        <path d="M193.87,210.78c.29,4.24,4.24,2.49,2.66-.99-1.33-.42-1.85.14-2.66.99Z"/>
        <path d="M212.86,193.27c-1.57-.76-2.76.95-2.26,2.45,2.08,1.5,5.1-1.08,2.26-2.45Z"/>
        <path d="M97.29,342.37c-.75-.23-1.46-.13-2.22-.12v3.1c1.36.37,3.51-.33,3.09-2.04-.02-.06-.81-.91-.87-.93Z"/>
        <rect x="227.2" y="177.18" width="3.49" height="2.33"/>
        <rect x="177.99" y="226.39" width="2.33" height="3.49"/>
        <path d="M161.68,243.99c-.63.76-.27,1.71.09,2.49,1.76.54,3.13-.86,2.6-2.6-.86-.42-1.99-.78-2.69.1Z"/>
        <path d="M203.14,202.53c-.63.76-.27,1.71.09,2.49,1.74.54,3.13-.83,2.6-2.6-.86-.42-1.99-.78-2.69.1Z"/>
        <path d="M329.4,110.27c-2.24-.84-3.36,2.93-.52,2.96,2.23.03,1.51-2.59.52-2.96Z"/>
        <path d="M286.09,135.91l-.38,2.14c1.76.33,3.43-.33,3.08-2.3l-2.7.16Z"/>
        <path d="M98.05,358.27c-.85-.44-2.74-.84-3.75-.91.94.99,3.16,2.9,4.46,3.1,1.47.23-.3-1.98-.71-2.19Z"/>
        <path d="M122,302.72l.19-1.94-1.88.06c-.99,1.94-.26,3.57,1.69,1.88Z"/>
        <path d="M102.83,336.43l2.35-.17.36-2.15c-1.47-.24-2.83.8-2.71,2.32Z"/>
        <path d="M318.26,120.6l1.73.79.56-1.71c-.41-1.31-2.46-.31-2.29.92Z"/>
      </g>
    </g>
  </g>
</svg>