<svg width="32" id="_레이어_2" data-name="레이어 2" xmlns="http://www.w3.org/2000/svg" viewBox="0 0 481.88 118.62">
  <g id="_레이어_1-2" data-name="레이어 1">
    <g>
      <path d="M220.05,11.19h-24.13v22.76h-13.03v17.09h13.03v45.48c0,15.59,5.98,22.11,23.85,22.11,3.35,0,10.14-.18,14.86-1.58v-15.19c-2.55.32-3.32.36-5.52.36-7.55,0-9.06-2.38-9.06-8.14v-43.03h16.49v-17.09h-16.49V11.19Z"/>
      <path d="M86.98,0h-24.29c.18,0,.36,15.65.48,35.53-5.91-3.01-12.6-4.72-19.69-4.72C19.47,30.81,0,50.28,0,74.29s19.47,43.48,43.48,43.48c7.13,0,13.85-1.73,19.79-4.77-.04,3.03-.08,4.77-.14,4.77h24.21c-.2-4.9-.36-13.58-.36-23.36V0ZM43.48,93.72c-10.73,0-19.42-8.7-19.42-19.42s8.7-19.42,19.42-19.42,19.42,8.7,19.42,19.42-8.7,19.42-19.42,19.42Z"/>
      <path d="M139.41,30.81c-24.02,0-43.48,19.47-43.48,43.48s19.47,43.48,43.48,43.48,43.48-19.47,43.48-43.48-19.47-43.48-43.48-43.48ZM139.41,93.72c-10.73,0-19.42-8.7-19.42-19.42s8.7-19.42,19.42-19.42,19.42,8.7,19.42,19.42-8.7,19.42-19.42,19.42Z"/>
      <path d="M481.88,51.04v-17.09h-16.49V11.19h-24.13v22.76h-13.03v17.09h13.03v45.48c0,15.59,5.98,22.11,23.85,22.11,3.35,0,10.14-.18,14.86-1.58v-15.19c-2.55.32-3.32.36-5.52.36-7.55,0-9.06-2.38-9.06-8.14v-43.03h16.49Z"/>
      <path d="M332.31,0h-24.29c.18,0,.36,15.65.48,35.53-5.91-3.01-12.6-4.72-19.69-4.72-24.02,0-43.48,19.47-43.48,43.48s19.47,43.48,43.48,43.48c7.13,0,13.85-1.73,19.79-4.77-.04,3.03-.08,4.77-.14,4.77h24.21c-.2-4.9-.36-13.58-.36-23.36V0ZM288.82,93.72c-10.73,0-19.42-8.7-19.42-19.42s8.7-19.42,19.42-19.42,19.42,8.7,19.42,19.42-8.7,19.42-19.42,19.42Z"/>
      <path d="M384.74,30.81c-24.02,0-43.48,19.47-43.48,43.48s19.47,43.48,43.48,43.48,43.48-19.47,43.48-43.48-19.47-43.48-43.48-43.48ZM384.74,93.72c-10.73,0-19.42-8.7-19.42-19.42s8.7-19.42,19.42-19.42,19.42,8.7,19.42,19.42-8.7,19.42-19.42,19.42Z"/>
    </g>
  </g>
</svg>